<svg width="148" height="132" viewBox="0 0 148 132" fill="none" xmlns="http://www.w3.org/2000/svg">
<path d="M135.672 77.4075L147.816 23.9732C148.693 20.1152 145.76 16.4413 141.804 16.4413H40.8998L38.5451 4.92982C37.9584 2.06056 35.4336 0 32.5047 0H6.16549C2.76034 0 0 2.76034 0 6.16549V10.2758C0 13.681 2.76034 16.4413 6.16549 16.4413H24.1181L42.1645 104.668C37.8471 107.151 34.9378 111.807 34.9378 117.144C34.9378 125.09 41.3787 131.53 49.3239 131.53C57.2692 131.53 63.7101 125.09 63.7101 117.144C63.7101 113.118 62.0539 109.48 59.3881 106.869H113.245C110.58 109.48 108.924 113.118 108.924 117.144C108.924 125.09 115.365 131.53 123.31 131.53C131.255 131.53 137.696 125.09 137.696 117.144C137.696 111.448 134.385 106.526 129.583 104.196L131.001 97.9591C131.878 94.1011 128.945 90.4272 124.989 90.4272H56.0333L54.3519 82.2066H129.66C132.538 82.2066 135.034 80.2146 135.672 77.4075Z" fill="black"/>
</svg>
