<svg width="55" height="23" viewBox="0 0 55 23" fill="none" xmlns="http://www.w3.org/2000/svg">
<path d="M15 0.5H43.5C49.5751 0.5 54.5 5.42487 54.5 11.5C54.5 17.5751 49.5751 22.5 43.5 22.5H0.5V15C0.5 6.99187 6.99187 0.5 15 0.5Z" stroke="#637CFD"/>
<path d="M12.267 10C12.2443 9.71591 12.1378 9.49432 11.9474 9.33523C11.7599 9.17614 11.4744 9.09659 11.0909 9.09659C10.8466 9.09659 10.6463 9.12642 10.4901 9.18608C10.3366 9.2429 10.223 9.32102 10.1491 9.42045C10.0753 9.51989 10.0369 9.63352 10.0341 9.76136C10.0284 9.86648 10.0469 9.96165 10.0895 10.0469C10.1349 10.1293 10.206 10.2045 10.3026 10.2727C10.3991 10.3381 10.5227 10.3977 10.6733 10.4517C10.8239 10.5057 11.0028 10.554 11.2102 10.5966L11.9261 10.75C12.4091 10.8523 12.8224 10.9872 13.1662 11.1548C13.5099 11.3224 13.7912 11.5199 14.0099 11.7472C14.2287 11.9716 14.3892 12.2244 14.4915 12.5057C14.5966 12.7869 14.6506 13.0937 14.6534 13.4261C14.6506 14 14.5071 14.4858 14.223 14.8835C13.9389 15.2812 13.5327 15.5838 13.0043 15.7912C12.4787 15.9986 11.8466 16.1023 11.108 16.1023C10.3494 16.1023 9.6875 15.9901 9.12216 15.7656C8.55966 15.5412 8.12216 15.196 7.80966 14.7301C7.5 14.2614 7.34375 13.6619 7.34091 12.9318H9.59091C9.60511 13.1989 9.67188 13.4233 9.79119 13.6051C9.91051 13.7869 10.0781 13.9247 10.294 14.0185C10.5128 14.1122 10.7727 14.1591 11.0739 14.1591C11.3267 14.1591 11.5384 14.1278 11.7088 14.0653C11.8793 14.0028 12.0085 13.9162 12.0966 13.8054C12.1847 13.6946 12.2301 13.5682 12.233 13.4261C12.2301 13.2926 12.1861 13.1761 12.1009 13.0767C12.0185 12.9744 11.8821 12.8835 11.6918 12.804C11.5014 12.7216 11.2443 12.6449 10.9205 12.5739L10.0511 12.3864C9.27841 12.2187 8.66903 11.9389 8.22301 11.5469C7.77983 11.152 7.55966 10.6136 7.5625 9.93182C7.55966 9.37784 7.70739 8.89347 8.00568 8.47869C8.30682 8.06108 8.72301 7.7358 9.25426 7.50284C9.78835 7.26989 10.4006 7.15341 11.0909 7.15341C11.7955 7.15341 12.4048 7.27131 12.919 7.5071C13.4332 7.7429 13.8295 8.07528 14.108 8.50426C14.3892 8.9304 14.5313 9.42898 14.5341 10H12.267ZM17.3547 16V7.27273H19.724V10.6818H22.8604V7.27273H25.2297V16H22.8604V12.5909H19.724V16H17.3547ZM36.6092 11.6364C36.6092 12.608 36.4203 13.4276 36.0425 14.0952C35.6646 14.7599 35.1547 15.2642 34.5126 15.608C33.8706 15.9489 33.1547 16.1193 32.3649 16.1193C31.5695 16.1193 30.8507 15.9474 30.2087 15.6037C29.5695 15.2571 29.0609 14.7514 28.6831 14.0866C28.3081 13.419 28.1206 12.6023 28.1206 11.6364C28.1206 10.6648 28.3081 9.84659 28.6831 9.18182C29.0609 8.5142 29.5695 8.00994 30.2087 7.66903C30.8507 7.32528 31.5695 7.15341 32.3649 7.15341C33.1547 7.15341 33.8706 7.32528 34.5126 7.66903C35.1547 8.00994 35.6646 8.5142 36.0425 9.18182C36.4203 9.84659 36.6092 10.6648 36.6092 11.6364ZM34.1717 11.6364C34.1717 11.1136 34.1021 10.6733 33.9629 10.3153C33.8266 9.95455 33.6234 9.68182 33.3536 9.49716C33.0865 9.30966 32.757 9.21591 32.3649 9.21591C31.9729 9.21591 31.6419 9.30966 31.372 9.49716C31.105 9.68182 30.9018 9.95455 30.7626 10.3153C30.6263 10.6733 30.5581 11.1136 30.5581 11.6364C30.5581 12.1591 30.6263 12.6009 30.7626 12.9616C30.9018 13.3196 31.105 13.5923 31.372 13.7798C31.6419 13.9645 31.9729 14.0568 32.3649 14.0568C32.757 14.0568 33.0865 13.9645 33.3536 13.7798C33.6234 13.5923 33.8266 13.3196 33.9629 12.9616C34.1021 12.6009 34.1717 12.1591 34.1717 11.6364ZM39.5055 16V7.27273H43.2725C43.9202 7.27273 44.487 7.40057 44.9728 7.65625C45.4586 7.91193 45.8364 8.27131 46.1063 8.73438C46.3762 9.19744 46.5112 9.73864 46.5112 10.358C46.5112 10.983 46.3719 11.5241 46.0935 11.9815C45.818 12.4389 45.4302 12.7912 44.9302 13.0384C44.433 13.2855 43.8521 13.4091 43.1873 13.4091H40.9373V11.5682H42.71C42.9884 11.5682 43.2256 11.5199 43.4217 11.4233C43.6205 11.3239 43.7725 11.1832 43.8776 11.0014C43.9856 10.8196 44.0396 10.6051 44.0396 10.358C44.0396 10.108 43.9856 9.89489 43.8776 9.71875C43.7725 9.53977 43.6205 9.40341 43.4217 9.30966C43.2256 9.21307 42.9884 9.16477 42.71 9.16477H41.8748V16H39.5055Z" fill="#637CFD"/>
</svg>
