<svg width="60" height="60" viewBox="0 0 60 60" fill="none" xmlns="http://www.w3.org/2000/svg">
<path d="M29.5561 0C13.2287 0 0 13.2287 0 29.5561C0 45.8834 13.2287 59.1121 29.5561 59.1121C45.8834 59.1121 59.1121 45.8834 59.1121 29.5561C59.1121 13.2287 45.8834 0 29.5561 0ZM29.5561 11.4411C35.3481 11.4411 40.0437 16.1367 40.0437 21.9287C40.0437 27.7207 35.3481 32.4163 29.5561 32.4163C23.764 32.4163 19.0684 27.7207 19.0684 21.9287C19.0684 16.1367 23.764 11.4411 29.5561 11.4411ZM29.5561 52.4382C22.5603 52.4382 16.2916 49.2681 12.0965 44.3103C14.3371 40.0914 18.7228 37.1834 23.8355 37.1834C24.1216 37.1834 24.4076 37.2311 24.6817 37.3145C26.231 37.8151 27.8518 38.1369 29.5561 38.1369C31.2603 38.1369 32.893 37.8151 34.4304 37.3145C34.7045 37.2311 34.9906 37.1834 35.2766 37.1834C40.3893 37.1834 44.7751 40.0914 47.0156 44.3103C42.8206 49.2681 36.5518 52.4382 29.5561 52.4382Z" fill="black"/>
</svg>
